<!-- Generator: Adobe Illustrator 17.0.0, SVG Export Plug-In  -->
<svg version="1.1"
	 xmlns="http://www.w3.org/2000/svg" xmlns:xlink="http://www.w3.org/1999/xlink" xmlns:a="http://ns.adobe.com/AdobeSVGViewerExtensions/3.0/"
	 x="0px" y="0px" width="86.047px" height="88.263px" viewBox="0 0 86.047 88.263" enable-background="new 0 0 86.047 88.263"
	 xml:space="preserve">
<defs>
</defs>
<g>
	<path fill="#FFFFFF" d="M38.113,40.87"/>
	<path fill="#FFFFFF" d="M38.786,40.733"/>
	<path fill="#FFFFFF" d="M49.832,15.525l-1.195-0.128l0.375-0.777l1.092,0.27L49.832,15.525z M63.144,22.404
		C63.144,10.031,52.917,0,40.302,0C27.687,0,17.461,10.031,17.461,22.404c0,8.275,4.577,15.496,11.379,19.376l1.213-5.627
		l-0.188-2.063l0.486-1.622l-0.532,0.475l0.101-3.459l0.979-3.515l-0.677,0.517l0.797-6.721l-1.345-0.523l1.826-2.607l-6.388-0.969
		l0.623-1.078l7.073-2.542l0.489-1.028l-2.171-0.991l-1.559-1.567l6.163-0.539l2.322-2.057l1.404-0.463l-0.718,0.887l-0.07,0.656
		L43.701,7.9l0.455,0.662l-1.406,0.317l0.51,0.959l7.894,3.968l-0.391,3.928l-0.462,0.64l-0.154,0.213l-0.128,0.177l0,0
		l-1.312,1.815l-1.2-0.245l-1.371-1.373l-5.307,2.409l1.408,6.485l-0.848,0.289l1.848,2.912l-0.497,0.823l4.12,5.14l0.342,0.62
		l-1.683-0.093l1.008,1.217l2.897,3.754l-0.048,0.449C57.476,39.523,63.144,31.615,63.144,22.404z M40.424,12.336l-0.679,0.073
		l-0.886,0.372l-0.913,0.895l0.915,0.536l1.11-0.086l0.783-0.5l0.787-1.083L40.424,12.336z M47.781,17.926l-1.144-0.822
		l-0.854-0.091l0.847,0.6l0.957,0.725l0.71,0.241l1.723,0.184l0.282-0.39l-1.955-0.256L47.781,17.926z"/>
	<g>
		<path fill="#FFFFFF" d="M0,48.576h5.571v18.97h7.656v4.871H0V48.576z"/>
		<path fill="#FFFFFF" d="M14.577,48.576h5.571v18.97h7.656v4.871H14.577V48.576z"/>
		<path fill="#FFFFFF" d="M33.775,48.576h5.525l6.277,23.84h-6.05l-0.847-4.734H34.11l-0.87,4.734h-5.691L33.775,48.576z
			 M36.427,55.087l-1.53,8.323h3.021L36.427,55.087z"/>
		<path fill="#FFFFFF" d="M47.355,48.576h6.084l3.333,9.126l3.332-9.126h6.102v23.84h-5.435v-8.921c0-2.256,0.091-4.546,0.273-6.87
			h-0.41c-0.239,1.151-0.713,2.734-1.419,4.751l-2.443,6.956l-2.427-6.956c-0.707-2.028-1.18-3.611-1.419-4.751H52.5
			c0.193,2.153,0.29,4.443,0.29,6.87v8.921h-5.435V48.576z"/>
		<path fill="#FFFFFF" d="M74.244,48.576h5.525l6.277,23.84h-6.05l-0.847-4.734h-4.571l-0.87,4.734h-5.691L74.244,48.576z
			 M76.896,55.087l-1.53,8.323h3.021L76.896,55.087z"/>
	</g>
	<g>
		<path fill="#FFFFFF" d="M15.242,75.117h3.776c1.132,0,2.071,0.266,2.82,0.798c0.748,0.532,1.281,1.29,1.601,2.273
			c0.318,0.983,0.478,2.069,0.478,3.256c0,1.998-0.45,3.6-1.35,4.806c-0.9,1.206-2.22,1.809-3.957,1.809h-3.368V75.117z
			 M18.258,77.631v7.895h0.213c1.564,0,2.348-1.416,2.348-4.249c0-1.095-0.169-1.976-0.506-2.644s-0.89-1.002-1.656-1.002H18.258z"
			/>
		<path fill="#FFFFFF" d="M25.354,75.117h3.043v12.942h-3.043V75.117z"/>
		<path fill="#FFFFFF" d="M35.866,87.085c-0.297,0.39-0.616,0.684-0.956,0.881s-0.702,0.297-1.085,0.297
			c-0.73,0-1.415-0.286-2.056-0.858c-0.64-0.572-1.111-1.388-1.414-2.449c-0.304-1.061-0.455-2.178-0.455-3.354
			c0-1.998,0.444-3.613,1.331-4.848c0.888-1.233,2.086-1.851,3.596-1.851c1.008,0,1.917,0.254,2.728,0.761v2.869
			c-0.769-0.639-1.479-0.958-2.129-0.958c-0.843,0-1.472,0.375-1.888,1.123c-0.415,0.749-0.622,1.769-0.622,3.062
			c0,1.2,0.141,2.154,0.424,2.862c0.282,0.708,0.666,1.062,1.15,1.062c0.248,0,0.433-0.121,0.554-0.362s0.182-0.603,0.182-1.085
			v-0.807h-0.992v-2.329h3.804v6.958h-1.466L35.866,87.085z"/>
		<path fill="#FFFFFF" d="M39.8,75.117h3.043v12.942H39.8V75.117z"/>
		<path fill="#FFFFFF" d="M44.253,75.117h8.173v2.625h-2.625v10.316h-3.016V77.742h-2.532V75.117z"/>
		<path fill="#FFFFFF" d="M55.027,75.117h2.999l3.408,12.942H58.15l-0.46-2.57h-2.481l-0.473,2.57h-3.09L55.027,75.117z
			 M56.467,78.652l-0.831,4.518h1.64L56.467,78.652z"/>
		<path fill="#FFFFFF" d="M62.418,75.117h3.024v10.298h4.156v2.644h-7.181V75.117z"/>
	</g>
	<g>
		<path fill="#FFFFFF" d="M11.65,80.759c0.485,0,0.883,0.161,1.194,0.482c0.311,0.321,0.467,0.704,0.467,1.148
			c0,0.451-0.157,0.835-0.472,1.154c-0.314,0.317-0.69,0.477-1.128,0.477c-0.431,0-0.804-0.159-1.118-0.477
			c-0.314-0.318-0.472-0.699-0.472-1.144c0-0.465,0.161-0.854,0.482-1.169S11.274,80.759,11.65,80.759z"/>
	</g>
	<g>
		<path fill="#FFFFFF" d="M73.382,80.759c0.485,0,0.883,0.161,1.194,0.482c0.311,0.321,0.467,0.704,0.467,1.148
			c0,0.451-0.157,0.835-0.472,1.154c-0.314,0.317-0.69,0.477-1.128,0.477c-0.431,0-0.804-0.159-1.118-0.477
			c-0.314-0.318-0.472-0.699-0.472-1.144c0-0.465,0.161-0.854,0.482-1.169S73.006,80.759,73.382,80.759z"/>
	</g>
</g>
</svg>
